<svg width="375" height="256" viewBox="0 0 375 256" fill="none" xmlns="http://www.w3.org/2000/svg">
<path d="M16 256C7.16345 256 -3.13124e-07 248.837 -6.99382e-07 240L-1.11901e-05 -3.05176e-05L375 -4.69093e-05L375 240C375 248.837 367.837 256 359 256L16 256Z" fill="#EFF5FF"/>
<g clip-path="url(#clip0_3304:147)">
<path d="M-4.75531 1.60754L20.5582 -23.706C38.1424 -41.2902 38.1424 -69.792 20.5582 -87.2796L6.06573 -101.772C2.974 -104.864 2.974 -109.791 6.06573 -112.883L6.16234 -112.98C9.35068 -116.168 14.4714 -116.168 17.6597 -112.98C22.4905 -108.149 56.113 -74.5262 63.7457 -66.8935C79.784 -50.8552 105.774 -50.8552 121.812 -66.8935C137.85 -82.9318 137.85 -108.922 121.812 -124.96L-18.8613 -265.633L-14.6102 -296.551L36.5965 -245.344C58.9149 -223.026 95.146 -223.026 117.464 -245.344C139.783 -267.662 139.783 -303.894 117.464 -326.212L39.2051 -404.471C35.8236 -407.853 35.8236 -413.36 39.2051 -416.742C42.5867 -420.123 48.0938 -420.123 51.4754 -416.742L167.318 -300.995C179.975 -288.338 200.361 -288.338 213.018 -300.995C225.675 -313.652 225.675 -334.038 213.018 -346.695L132.73 -426.983C129.058 -430.654 129.058 -436.548 132.73 -440.123C136.401 -443.794 142.295 -443.794 145.87 -440.123L147.319 -438.673C173.985 -412.007 217.172 -412.007 243.839 -438.673L303.741 -498.576L-43.4019 -498.576" fill="#91CFF2"/>
<path d="M36.4033 18.1289C36.4033 38.0318 52.5383 54.1667 72.4412 54.1667C92.3442 54.1667 108.479 38.0318 108.479 18.1289C108.479 -1.7741 92.3442 -17.909 72.4412 -17.909C52.5383 -17.909 36.4033 -1.7741 36.4033 18.1289ZM101.426 18.1289C101.426 34.1672 88.4795 47.1138 72.4412 47.1138C56.4995 47.1138 43.4563 34.1672 43.4563 18.1289C43.4563 2.18717 56.4029 -10.856 72.4412 -10.856C88.4795 -10.856 101.426 2.09055 101.426 18.1289Z" fill="#91CFF2"/>
<path d="M324.127 33.4909C324.127 29.0087 320.493 25.3751 316.011 25.3751C311.529 25.3751 307.895 29.0087 307.895 33.4909C307.895 37.9731 311.529 41.6067 316.011 41.6067C320.493 41.6067 324.127 37.9731 324.127 33.4909Z" fill="#FFCF54"/>
<path d="M306.736 16.0999C306.736 11.6177 303.102 7.98415 298.62 7.98415C294.138 7.98415 290.504 11.6177 290.504 16.0999C290.504 20.5821 294.138 24.2157 298.62 24.2157C303.102 24.2157 306.736 20.5821 306.736 16.0999Z" fill="#FFCF54"/>
<path d="M210.147 245.619C198.964 234.437 180.834 234.437 169.652 245.619C158.469 256.802 158.469 274.932 169.652 286.114C180.834 297.297 198.964 297.297 210.147 286.114C221.329 274.932 221.329 256.802 210.147 245.619Z" fill="#FFCF54"/>
<path d="M323.559 258.841L244.333 179.615C226.556 161.838 226.556 133.046 244.333 115.365C262.11 97.5878 290.902 97.5878 308.583 115.365L344.621 151.403C352.447 159.229 365.007 159.229 372.833 151.403C380.659 143.577 380.659 131.017 372.833 123.191L365.007 115.365C348.969 99.3269 348.969 73.3371 365.007 57.2988C381.045 41.2605 407.035 41.2605 423.073 57.2988L455.247 89.472C458.725 92.9502 464.329 92.9502 467.807 89.472C471.285 85.9939 471.285 80.3901 467.807 76.9119L389.354 -1.5406C375.538 -15.3567 375.538 -37.8683 389.354 -51.6845C403.17 -65.5006 425.682 -65.5006 439.498 -51.6845L460.754 -30.5255C463.749 -27.5304 468.676 -27.5304 471.768 -30.5255C474.763 -33.5206 474.763 -38.448 471.768 -41.5398L470.029 -43.2789C432.928 -80.3796 432.928 -140.668 470.029 -177.769L506.26 -214L506.26 373.331C506.163 373.331 330.612 251.788 323.559 258.841Z" fill="#B9E6FF"/>
<path d="M181.907 42.3797C180.845 41.3169 180.845 39.4812 181.907 38.4184L190.41 29.9162C191.472 28.8534 193.308 28.8534 194.371 29.9162C195.434 30.979 195.434 32.8147 194.371 33.8775L185.869 42.3797C184.806 43.4425 183.067 43.4425 181.907 42.3797Z" fill="#31346B"/>
<path d="M181.907 29.8214C182.97 28.7586 184.806 28.7586 185.869 29.8213L194.371 38.3236C195.434 39.3864 195.434 41.2222 194.371 42.2849C193.308 43.3477 191.472 43.3477 190.41 42.2849L181.907 33.7826C180.845 32.7199 180.845 30.9808 181.907 29.8214Z" fill="#31346B"/>
<path d="M422.88 258.164L297.955 133.239" stroke="white" stroke-width="3" stroke-miterlimit="10" stroke-linecap="round"/>
<path d="M448.87 319.516L336.892 207.537" stroke="white" stroke-width="3" stroke-miterlimit="10" stroke-linecap="round"/>
<path d="M202.97 84.3111C202.97 75.9336 196.179 69.1423 187.801 69.1423C179.424 69.1423 172.632 75.9336 172.632 84.3111C172.632 92.6886 179.424 99.4799 187.801 99.4799C196.179 99.4799 202.97 92.6886 202.97 84.3111Z" fill="#B9E6FF"/>
<path d="M83.7454 27.404L112.054 55.8092" stroke="#31346B" stroke-width="3" stroke-miterlimit="10" stroke-linecap="round"/>
</g>
<defs>
<clipPath id="clip0_3304:147">
<path d="M16 256C7.16345 256 -3.13124e-07 248.837 -6.99382e-07 240L-1.11901e-05 1.52588e-05L375 -1.13298e-06L375 240C375 248.837 367.837 256 359 256L16 256Z" fill="white"/>
</clipPath>
</defs>
</svg>
