<svg width="32" height="32" viewBox="0 0 32 32" fill="none" xmlns="http://www.w3.org/2000/svg">
<path d="M26.3873 13.0311C26.0161 12.662 25.4161 12.6636 25.0469 13.0347L13.6539 24.4894C12.1758 25.9675 9.77514 25.9675 8.29428 24.4874C6.81453 23.0069 6.81453 20.6062 8.29446 19.1263L20.0247 7.3344C20.9475 6.41162 22.4479 6.41162 23.3733 7.3364C24.2986 8.26162 24.2986 9.76176 23.3731 10.6872L13.6557 20.4046C13.6551 20.4052 13.6545 20.4059 13.6539 20.4066C13.2837 20.7747 12.6854 20.7742 12.316 20.4048C11.9459 20.0347 11.9459 19.4349 12.316 19.0648L17.0065 14.3733C17.3766 14.0032 17.3765 13.4031 17.0064 13.033C16.6362 12.6629 16.0361 12.663 15.666 13.0331L10.9755 17.7245C9.86528 18.8348 9.86528 20.6348 10.9756 21.7451C12.0859 22.8554 13.8859 22.8554 14.9962 21.7451C14.9975 21.7438 14.9986 21.7424 14.9998 21.7411L24.7134 12.0275C26.3791 10.3618 26.3791 7.66147 24.7134 5.99575C23.0475 4.33101 20.3473 4.33101 18.6826 5.99575L6.95234 17.7877C4.73396 20.0061 4.73396 23.6066 6.95394 25.8277C9.17539 28.048 12.776 28.048 14.9961 25.8279L26.3909 14.3715C26.76 14.0003 26.7584 13.4003 26.3873 13.0311Z" fill="#CACACA"/>
</svg>
